<mxfile host="Electron" agent="Mozilla/5.0 (Windows NT 10.0; Win64; x64) AppleWebKit/537.36 (KHTML, like Gecko) draw.io/28.1.2 Chrome/138.0.7204.243 Electron/37.4.0 Safari/537.36" version="28.1.2">
  <diagram name="Page-1" id="nfvmlznbkoSjh4hifC-U">
    <mxGraphModel dx="1188" dy="701" grid="1" gridSize="10" guides="1" tooltips="1" connect="1" arrows="1" fold="1" page="1" pageScale="1" pageWidth="850" pageHeight="1100" math="0" shadow="0">
      <root>
        <mxCell id="0" />
        <mxCell id="1" parent="0" />
        <mxCell id="8RGpFNCVPckuqsEfQ1hN-3" style="edgeStyle=orthogonalEdgeStyle;rounded=0;orthogonalLoop=1;jettySize=auto;html=1;" edge="1" parent="1" source="8RGpFNCVPckuqsEfQ1hN-1" target="8RGpFNCVPckuqsEfQ1hN-2">
          <mxGeometry relative="1" as="geometry" />
        </mxCell>
        <mxCell id="8RGpFNCVPckuqsEfQ1hN-1" value="User creates account" style="rounded=0;whiteSpace=wrap;html=1;" vertex="1" parent="1">
          <mxGeometry x="80" y="200" width="120" height="60" as="geometry" />
        </mxCell>
        <mxCell id="8RGpFNCVPckuqsEfQ1hN-5" style="edgeStyle=orthogonalEdgeStyle;rounded=0;orthogonalLoop=1;jettySize=auto;html=1;" edge="1" parent="1" source="8RGpFNCVPckuqsEfQ1hN-2" target="8RGpFNCVPckuqsEfQ1hN-6">
          <mxGeometry relative="1" as="geometry">
            <mxPoint x="570" y="230" as="targetPoint" />
          </mxGeometry>
        </mxCell>
        <mxCell id="8RGpFNCVPckuqsEfQ1hN-2" value="Generates Sahadow account for hotspot" style="rounded=0;whiteSpace=wrap;html=1;" vertex="1" parent="1">
          <mxGeometry x="300" y="200" width="120" height="60" as="geometry" />
        </mxCell>
        <mxCell id="8RGpFNCVPckuqsEfQ1hN-9" style="edgeStyle=orthogonalEdgeStyle;rounded=0;orthogonalLoop=1;jettySize=auto;html=1;" edge="1" parent="1" source="8RGpFNCVPckuqsEfQ1hN-12" target="8RGpFNCVPckuqsEfQ1hN-8">
          <mxGeometry relative="1" as="geometry">
            <Array as="points" />
          </mxGeometry>
        </mxCell>
        <mxCell id="8RGpFNCVPckuqsEfQ1hN-6" value="Create user profile with shadow account username as name" style="rounded=0;whiteSpace=wrap;html=1;" vertex="1" parent="1">
          <mxGeometry x="550" y="200" width="120" height="60" as="geometry" />
        </mxCell>
        <mxCell id="8RGpFNCVPckuqsEfQ1hN-11" style="edgeStyle=orthogonalEdgeStyle;rounded=0;orthogonalLoop=1;jettySize=auto;html=1;" edge="1" parent="1" source="8RGpFNCVPckuqsEfQ1hN-8" target="8RGpFNCVPckuqsEfQ1hN-10">
          <mxGeometry relative="1" as="geometry" />
        </mxCell>
        <mxCell id="8RGpFNCVPckuqsEfQ1hN-8" value="Apply free 5 Hours to Account" style="rounded=0;whiteSpace=wrap;html=1;" vertex="1" parent="1">
          <mxGeometry x="300" y="370" width="120" height="60" as="geometry" />
        </mxCell>
        <mxCell id="8RGpFNCVPckuqsEfQ1hN-15" style="edgeStyle=orthogonalEdgeStyle;rounded=0;orthogonalLoop=1;jettySize=auto;html=1;" edge="1" parent="1" source="8RGpFNCVPckuqsEfQ1hN-10" target="8RGpFNCVPckuqsEfQ1hN-25">
          <mxGeometry relative="1" as="geometry">
            <mxPoint x="140" y="520" as="targetPoint" />
          </mxGeometry>
        </mxCell>
        <mxCell id="8RGpFNCVPckuqsEfQ1hN-10" value="Login" style="rounded=0;whiteSpace=wrap;html=1;" vertex="1" parent="1">
          <mxGeometry x="80" y="370" width="120" height="60" as="geometry" />
        </mxCell>
        <mxCell id="8RGpFNCVPckuqsEfQ1hN-13" value="" style="edgeStyle=orthogonalEdgeStyle;rounded=0;orthogonalLoop=1;jettySize=auto;html=1;" edge="1" parent="1" source="8RGpFNCVPckuqsEfQ1hN-6" target="8RGpFNCVPckuqsEfQ1hN-12">
          <mxGeometry relative="1" as="geometry">
            <mxPoint x="610" y="260" as="sourcePoint" />
            <mxPoint x="420" y="400" as="targetPoint" />
            <Array as="points" />
          </mxGeometry>
        </mxCell>
        <mxCell id="8RGpFNCVPckuqsEfQ1hN-12" value="Verify Account SMS" style="rounded=0;whiteSpace=wrap;html=1;" vertex="1" parent="1">
          <mxGeometry x="550" y="370" width="120" height="60" as="geometry" />
        </mxCell>
        <mxCell id="8RGpFNCVPckuqsEfQ1hN-28" style="edgeStyle=orthogonalEdgeStyle;rounded=0;orthogonalLoop=1;jettySize=auto;html=1;" edge="1" parent="1" source="8RGpFNCVPckuqsEfQ1hN-25" target="8RGpFNCVPckuqsEfQ1hN-27">
          <mxGeometry relative="1" as="geometry" />
        </mxCell>
        <mxCell id="8RGpFNCVPckuqsEfQ1hN-25" value="Check account if connected to Hotspot network" style="rounded=0;whiteSpace=wrap;html=1;" vertex="1" parent="1">
          <mxGeometry x="80" y="500" width="120" height="60" as="geometry" />
        </mxCell>
        <mxCell id="8RGpFNCVPckuqsEfQ1hN-32" style="edgeStyle=orthogonalEdgeStyle;rounded=0;orthogonalLoop=1;jettySize=auto;html=1;" edge="1" parent="1" source="8RGpFNCVPckuqsEfQ1hN-27" target="8RGpFNCVPckuqsEfQ1hN-30">
          <mxGeometry relative="1" as="geometry" />
        </mxCell>
        <mxCell id="8RGpFNCVPckuqsEfQ1hN-27" value="Connected to Hotspot network ?" style="rhombus;whiteSpace=wrap;html=1;" vertex="1" parent="1">
          <mxGeometry x="60" y="640" width="160" height="160" as="geometry" />
        </mxCell>
        <mxCell id="8RGpFNCVPckuqsEfQ1hN-29" style="edgeStyle=orthogonalEdgeStyle;rounded=0;orthogonalLoop=1;jettySize=auto;html=1;" edge="1" parent="1" source="8RGpFNCVPckuqsEfQ1hN-30" target="8RGpFNCVPckuqsEfQ1hN-31">
          <mxGeometry relative="1" as="geometry" />
        </mxCell>
        <mxCell id="8RGpFNCVPckuqsEfQ1hN-58" value="Yes" style="edgeLabel;html=1;align=center;verticalAlign=middle;resizable=0;points=[];" vertex="1" connectable="0" parent="8RGpFNCVPckuqsEfQ1hN-29">
          <mxGeometry x="0.6505" y="-1" relative="1" as="geometry">
            <mxPoint as="offset" />
          </mxGeometry>
        </mxCell>
        <mxCell id="8RGpFNCVPckuqsEfQ1hN-30" value="Authenticate account and check if last connected router" style="rounded=0;whiteSpace=wrap;html=1;" vertex="1" parent="1">
          <mxGeometry x="340" y="690" width="120" height="60" as="geometry" />
        </mxCell>
        <mxCell id="8RGpFNCVPckuqsEfQ1hN-34" style="edgeStyle=orthogonalEdgeStyle;rounded=0;orthogonalLoop=1;jettySize=auto;html=1;" edge="1" parent="1" source="8RGpFNCVPckuqsEfQ1hN-31" target="8RGpFNCVPckuqsEfQ1hN-33">
          <mxGeometry relative="1" as="geometry" />
        </mxCell>
        <mxCell id="8RGpFNCVPckuqsEfQ1hN-31" value="get mikrotik detail via database eg. Router infromations" style="rounded=0;whiteSpace=wrap;html=1;" vertex="1" parent="1">
          <mxGeometry x="590" y="920" width="120" height="60" as="geometry" />
        </mxCell>
        <mxCell id="8RGpFNCVPckuqsEfQ1hN-36" style="edgeStyle=orthogonalEdgeStyle;rounded=0;orthogonalLoop=1;jettySize=auto;html=1;" edge="1" parent="1" source="8RGpFNCVPckuqsEfQ1hN-33" target="8RGpFNCVPckuqsEfQ1hN-35">
          <mxGeometry relative="1" as="geometry" />
        </mxCell>
        <mxCell id="8RGpFNCVPckuqsEfQ1hN-33" value="Create user to mikrotik router using the mikrotiik information" style="rounded=0;whiteSpace=wrap;html=1;" vertex="1" parent="1">
          <mxGeometry x="590" y="1080" width="120" height="60" as="geometry" />
        </mxCell>
        <mxCell id="8RGpFNCVPckuqsEfQ1hN-38" style="edgeStyle=orthogonalEdgeStyle;rounded=0;orthogonalLoop=1;jettySize=auto;html=1;" edge="1" parent="1" source="8RGpFNCVPckuqsEfQ1hN-35" target="8RGpFNCVPckuqsEfQ1hN-37">
          <mxGeometry relative="1" as="geometry" />
        </mxCell>
        <mxCell id="8RGpFNCVPckuqsEfQ1hN-35" value="Obtain IP of user" style="rounded=0;whiteSpace=wrap;html=1;" vertex="1" parent="1">
          <mxGeometry x="350" y="1080" width="120" height="60" as="geometry" />
        </mxCell>
        <mxCell id="8RGpFNCVPckuqsEfQ1hN-40" style="edgeStyle=orthogonalEdgeStyle;rounded=0;orthogonalLoop=1;jettySize=auto;html=1;" edge="1" parent="1" source="8RGpFNCVPckuqsEfQ1hN-37" target="8RGpFNCVPckuqsEfQ1hN-39">
          <mxGeometry relative="1" as="geometry" />
        </mxCell>
        <mxCell id="8RGpFNCVPckuqsEfQ1hN-37" value="Login user on hotspot via mikrotik" style="rounded=0;whiteSpace=wrap;html=1;" vertex="1" parent="1">
          <mxGeometry x="350" y="1220" width="120" height="60" as="geometry" />
        </mxCell>
        <mxCell id="8RGpFNCVPckuqsEfQ1hN-47" style="edgeStyle=orthogonalEdgeStyle;rounded=0;orthogonalLoop=1;jettySize=auto;html=1;" edge="1" parent="1" source="8RGpFNCVPckuqsEfQ1hN-39" target="8RGpFNCVPckuqsEfQ1hN-45">
          <mxGeometry relative="1" as="geometry" />
        </mxCell>
        <mxCell id="8RGpFNCVPckuqsEfQ1hN-39" value="Display account information such as up time other menu." style="rounded=0;whiteSpace=wrap;html=1;" vertex="1" parent="1">
          <mxGeometry x="590" y="1220" width="120" height="60" as="geometry" />
        </mxCell>
        <mxCell id="8RGpFNCVPckuqsEfQ1hN-49" style="edgeStyle=orthogonalEdgeStyle;rounded=0;orthogonalLoop=1;jettySize=auto;html=1;" edge="1" parent="1" source="8RGpFNCVPckuqsEfQ1hN-45" target="8RGpFNCVPckuqsEfQ1hN-48">
          <mxGeometry relative="1" as="geometry" />
        </mxCell>
        <mxCell id="8RGpFNCVPckuqsEfQ1hN-45" value="User Disconnecs?" style="rhombus;whiteSpace=wrap;html=1;" vertex="1" parent="1">
          <mxGeometry x="570" y="1370" width="160" height="160" as="geometry" />
        </mxCell>
        <mxCell id="8RGpFNCVPckuqsEfQ1hN-51" style="edgeStyle=orthogonalEdgeStyle;rounded=0;orthogonalLoop=1;jettySize=auto;html=1;" edge="1" parent="1" source="8RGpFNCVPckuqsEfQ1hN-48" target="8RGpFNCVPckuqsEfQ1hN-50">
          <mxGeometry relative="1" as="geometry" />
        </mxCell>
        <mxCell id="8RGpFNCVPckuqsEfQ1hN-48" value="Execute disconnection and retrieve infromations of user" style="rounded=0;whiteSpace=wrap;html=1;" vertex="1" parent="1">
          <mxGeometry x="590" y="1610" width="120" height="60" as="geometry" />
        </mxCell>
        <mxCell id="8RGpFNCVPckuqsEfQ1hN-50" value="save uptime infromation" style="rounded=0;whiteSpace=wrap;html=1;" vertex="1" parent="1">
          <mxGeometry x="590" y="1770" width="120" height="60" as="geometry" />
        </mxCell>
        <mxCell id="8RGpFNCVPckuqsEfQ1hN-59" style="edgeStyle=orthogonalEdgeStyle;rounded=0;orthogonalLoop=1;jettySize=auto;html=1;" edge="1" parent="1" source="8RGpFNCVPckuqsEfQ1hN-56" target="8RGpFNCVPckuqsEfQ1hN-57">
          <mxGeometry relative="1" as="geometry" />
        </mxCell>
        <mxCell id="8RGpFNCVPckuqsEfQ1hN-56" value="Last connected router?" style="rhombus;whiteSpace=wrap;html=1;" vertex="1" parent="1">
          <mxGeometry x="570" y="640" width="160" height="160" as="geometry" />
        </mxCell>
        <mxCell id="8RGpFNCVPckuqsEfQ1hN-57" value="get mikrotik detail via database router tbl" style="rounded=0;whiteSpace=wrap;html=1;" vertex="1" parent="1">
          <mxGeometry x="900" y="690" width="120" height="60" as="geometry" />
        </mxCell>
      </root>
    </mxGraphModel>
  </diagram>
</mxfile>
